<svg width="63" height="63" viewBox="0 0 63 63" fill="none" xmlns="http://www.w3.org/2000/svg"><path d="M58.95 44.708v-7.119H55.9V7.12h3.014V0H4.049v7.119H7.1v30.483H4.05v7.118h20.326v10.157H14.218v6.101h2.034V63h7.119v-2.034h16.258V63h7.119v-2.034h2.034v-6.101H38.625V44.708H58.95zM6.084 5.085V2.034h50.81v3.05H6.082zM53.83 37.602H9.121V7.119H53.83v30.483zm-7.106 19.296v2.034H44.69v2.034h-3.05v-2.034H21.323v2.034h-3.05v-2.034H16.24v-2.034h10.157v-12.19h10.169v12.19h10.157zM38.6 42.674H6.083v-3.051H56.88v3.05H38.6z" fill="#E30613"/><path d="M32.498 46.742h-2.033v2.033h2.033v-2.033zm0 4.068h-2.033v2.033h2.033V50.81zm0 4.055h-2.033v2.033h2.033v-2.033zm0-31.488v-9.14h-1.017c-5.258 0-9.598 4.018-10.107 9.14h-.05v2.034h.05c.471 4.787 4.303 8.606 9.09 9.09v.05h2.034v-.05c5.122-.508 9.14-4.849 9.14-10.107v-1.017h-9.14zm-2.033 9.066c-3.671-.447-6.586-3.374-7.045-7.045h7.044v7.045zm0-9.078H23.42a8.134 8.134 0 0 1 7.044-7.044v7.044zm2.033 9.078v-7.045h7.044a8.134 8.134 0 0 1-7.044 7.045z" fill="#E30613"/><path d="M35.55 10.17h-1.018v11.173h11.174v-1.017c0-5.605-4.564-10.157-10.157-10.157zm1.016 9.14v-7.045a8.134 8.134 0 0 1 7.044 7.044h-7.044z" fill="#E30613"/></svg>