<svg width="65" height="65" viewBox="0 0 65 65" fill="none" xmlns="http://www.w3.org/2000/svg"><path d="M13 26.544a4.341 4.341 0 0 0-4.338 4.337A4.341 4.341 0 0 0 13 35.22a4.341 4.341 0 0 0 4.338-4.338A4.341 4.341 0 0 0 13 26.544zm0 6.5a2.168 2.168 0 0 1-2.162-2.163c0-1.19.972-2.162 2.162-2.162s2.162.972 2.162 2.162-.972 2.163-2.162 2.163z" fill="#E30613"/><path d="M46.946 12.559c-.998-6.18-6.36-10.928-12.821-10.928-6.334 0-11.605 4.556-12.757 10.544-1.01.32-1.996.678-2.956 1.074a10.837 10.837 0 0 0-9.238-5.13 11.03 11.03 0 0 0-3.083.447L2.57 9.603l3.52 1.036c2.904.858 5.182 3.225 5.962 6.13-3.403 2.43-6.065 5.412-7.741 8.674H3.25C1.459 25.47 0 26.928 0 28.72v10.825a3.255 3.255 0 0 0 3.25 3.25h1.062c2.022 3.928 5.374 7.37 9.776 10.006V63.37h8.662v-6.871c6.206 1.74 13.102 1.932 19.5.537v6.334h8.662v-9.367C59.754 49.588 65 42.192 65 34.132c0-9.226-7.076-17.658-18.054-21.573zM34.125 3.794c5.975 0 10.838 4.862 10.838 10.837 0 2.88-1.1 5.553-3.097 7.588h-7.101v-1.587c1.1-.166 1.957-.588 2.584-1.292.615-.704.934-1.561.934-2.585 0-.908-.243-1.663-.742-2.252-.499-.588-1.42-1.062-2.776-1.42V9.77c.537.23.883.678 1.023 1.357l2.15-.282c-.154-.844-.486-1.523-1.024-2.022-.524-.511-1.24-.806-2.15-.92v-.858h-1.24v.844c-.96.103-1.74.46-2.33 1.088-.588.627-.882 1.407-.882 2.341 0 .909.256 1.69.768 2.33.524.652 1.33 1.125 2.43 1.445v3.557a2.258 2.258 0 0 1-.818-.716 2.842 2.842 0 0 1-.512-1.165l-2.213.243c.166 1.114.55 1.97 1.164 2.585.601.601 1.395.972 2.367 1.1v1.536h-7.14a10.736 10.736 0 0 1-3.096-7.588c.025-5.988 4.888-10.85 10.863-10.85zm.64 14.97v-3.3c.512.14.883.357 1.1.626.23.269.333.601.333.973 0 .422-.128.806-.397 1.1a1.784 1.784 0 0 1-1.036.601zm-1.229-9.02v2.93h-.012c-.359-.167-.64-.371-.806-.627a1.387 1.387 0 0 1-.282-.832c0-.32.102-.627.307-.896.192-.268.46-.46.793-.575zm15.828 42.62l-.614.295v8.56h-4.338v-6.935l-1.356.345a38.419 38.419 0 0 1-9.481 1.178c-4.005 0-7.908-.602-11.593-1.779l-1.42-.46v7.651H16.25v-9.66l-.537-.307c-4.517-2.598-7.882-6.053-9.75-9.994l-.295-.627H3.25a1.087 1.087 0 0 1-1.088-1.087V28.706c0-.601.487-1.087 1.088-1.087h2.418l.295-.627c1.573-3.353 4.312-6.41 7.907-8.855l.589-.396-.128-.691c-.486-2.7-2.01-5.08-4.146-6.718a8.655 8.655 0 0 1 6.781 4.773l.461.934.947-.435a32.04 32.04 0 0 1 2.738-1.075v.077c0 2.776.858 5.387 2.444 7.587H21.65v2.163h24.938v-2.163h-1.894c1.523-2.098 2.367-4.606 2.418-7.28 9.584 3.723 15.726 11.145 15.726 19.193 0 7.421-5.042 14.228-13.474 18.259z" fill="#E30613"/></svg>