<svg width="66" height="66" viewBox="0 0 66 66" fill="none" xmlns="http://www.w3.org/2000/svg"><path d="M54.3 10.64H40.465V0H25.549v10.64H11.712a3.194 3.194 0 0 0-3.196 3.197v48.967A3.194 3.194 0 0 0 11.712 66h42.576a3.194 3.194 0 0 0 3.196-3.196V13.837c.013-1.754-1.43-3.196-3.183-3.196zM27.68 2.13h10.653v12.772H27.68V2.131zM54.3 63.87H11.713a1.07 1.07 0 0 1-1.065-1.066V13.837c0-.585.48-1.066 1.065-1.066H25.55v4.262h14.902V12.77h13.837a1.07 1.07 0 0 1 1.065 1.066v48.967h.013a1.07 1.07 0 0 1-1.065 1.065z" fill="#E30613"/><path d="M13.843 22.36v19.163h21.294V22.359H13.843zm5.43 17.032a5.337 5.337 0 0 1 5.224-4.261 5.323 5.323 0 0 1 5.21 4.261H19.273zm3.158-8.523c0-1.143.922-2.066 2.066-2.066 1.143 0 2.065.923 2.065 2.066-.013 1.144-.935 2.066-2.065 2.066a2.063 2.063 0 0 1-2.066-2.066zm10.575 8.523h-1.143a7.425 7.425 0 0 0-4.274-5.703 4.17 4.17 0 0 0 1.104-2.807 4.203 4.203 0 0 0-4.196-4.196 4.203 4.203 0 0 0-4.197 4.196 4.17 4.17 0 0 0 1.104 2.807 7.468 7.468 0 0 0-4.274 5.703h-1.143V24.49h17.02v14.902zM46.843 22.36h-2.3v2.13h2.3v-2.13zm4.353 0h-2.3v2.13h2.3v-2.13zm-8.523 0h-2.3v2.13h2.3v-2.13zm9.497 8.51H38.333V33H52.17v-2.13zm0 8.522H38.333v2.13H52.17v-2.13zm0 8.51H13.843v2.13H52.17v-2.13zm0 8.523H13.843v2.13H52.17v-2.13z" fill="#E30613"/></svg>