<svg width="74" height="74" viewBox="0 0 74 74" fill="none" xmlns="http://www.w3.org/2000/svg"><path d="M68.028 31.035c-2.885 0-5.288 2.054-5.842 4.778H48.872a11.822 11.822 0 0 0-2.637-6.35l9.41-9.411a5.972 5.972 0 0 0 7.517-.758c2.33-2.33 2.33-6.118 0-8.434-2.33-2.33-6.118-2.33-8.434 0-2.04 2.04-2.287 5.2-.758 7.517l-9.41 9.41a11.87 11.87 0 0 0-6.35-2.637V11.822c2.709-.554 4.762-2.972 4.762-5.842A5.98 5.98 0 0 0 37 .008a5.98 5.98 0 0 0-5.972 5.972c0 2.885 2.053 5.288 4.778 5.842v13.314a11.823 11.823 0 0 0-6.352 2.637l-9.425-9.41c1.53-2.317 1.282-5.478-.757-7.517-2.33-2.331-6.118-2.331-8.434 0-2.33 2.33-2.33 6.118 0 8.434a5.972 5.972 0 0 0 7.516.758l9.41 9.41a11.87 11.87 0 0 0-2.636 6.35H11.814c-.554-2.709-2.972-4.763-5.842-4.763A5.98 5.98 0 0 0 0 37.008a5.98 5.98 0 0 0 5.972 5.972c2.885 0 5.288-2.054 5.842-4.778h13.314a11.822 11.822 0 0 0 2.637 6.352l-9.41 9.41c-2.317-1.53-5.478-1.282-7.517.757-2.33 2.331-2.33 6.118 0 8.435a5.938 5.938 0 0 0 4.224 1.748 5.989 5.989 0 0 0 4.225-1.748c2.039-2.04 2.287-5.2.757-7.517l9.41-9.41a11.87 11.87 0 0 0 6.352 2.636V62.18c-2.724.553-4.778 2.971-4.778 5.84A5.98 5.98 0 0 0 37 73.994a5.98 5.98 0 0 0 5.972-5.972c0-2.884-2.053-5.288-4.778-5.841V48.865a11.824 11.824 0 0 0 6.352-2.636l9.41 9.41c-1.53 2.316-1.282 5.477.757 7.517a5.938 5.938 0 0 0 4.225 1.748 5.989 5.989 0 0 0 4.224-1.748c2.33-2.331 2.33-6.119 0-8.435-2.04-2.04-5.2-2.287-7.516-.757l-9.41-9.41a11.87 11.87 0 0 0 2.636-6.352h13.314c.554 2.724 2.972 4.778 5.842 4.778A5.98 5.98 0 0 0 74 37.008a5.98 5.98 0 0 0-5.972-5.973zm-11.61-18.5a3.573 3.573 0 0 1 2.534-1.048c.918 0 1.836.35 2.535 1.048a3.587 3.587 0 0 1 0 5.07 3.587 3.587 0 0 1-5.07 0 3.587 3.587 0 0 1 0-5.07zM17.597 17.59a3.587 3.587 0 0 1-5.07 0 3.587 3.587 0 0 1 0-5.07 3.581 3.581 0 0 1 2.535-1.048c.918 0 1.836.35 2.535 1.049a3.587 3.587 0 0 1 0 5.07zM5.972 40.591a3.58 3.58 0 0 1-3.583-3.583 3.58 3.58 0 0 1 3.583-3.584 3.58 3.58 0 0 1 3.584 3.584 3.59 3.59 0 0 1-3.584 3.583zm11.61 20.89c-1.354 1.354-3.714 1.354-5.069 0a3.587 3.587 0 0 1 0-5.07c.7-.7 1.617-1.049 2.535-1.049.917 0 1.835.35 2.534 1.049a3.587 3.587 0 0 1 0 5.07zm38.821-5.055c.7-.7 1.617-1.05 2.535-1.05a3.587 3.587 0 0 1 2.535 6.118c-1.355 1.356-3.715 1.356-5.07 0a3.587 3.587 0 0 1 0-5.068zM33.417 5.98A3.58 3.58 0 0 1 37 2.397a3.58 3.58 0 0 1 3.584 3.583A3.58 3.58 0 0 1 37 9.564c-1.981-.015-3.584-1.617-3.584-3.584zm7.166 62.055A3.58 3.58 0 0 1 37 71.62a3.58 3.58 0 0 1-3.584-3.584A3.58 3.58 0 0 1 37 64.452c1.981.015 3.584 1.617 3.584 3.583zM37 46.55c-5.259 0-9.541-4.282-9.541-9.541S31.74 27.467 37 27.467s9.541 4.282 9.541 9.54c0 5.26-4.282 9.542-9.541 9.542zm31.028-5.958a3.581 3.581 0 0 1-3.584-3.583 3.581 3.581 0 0 1 3.584-3.584 3.58 3.58 0 0 1 3.583 3.584 3.58 3.58 0 0 1-3.583 3.583z" fill="#E30613"/></svg>