<svg width="49" height="75" viewBox="0 0 49 75" fill="none" xmlns="http://www.w3.org/2000/svg"><path d="M41.213 43.79C43.22 29.158 38.452 13.951 27.57 3.055L24.515 0l-3.056 3.056C10.563 13.952 5.794 29.158 7.802 43.79 2.886 48.41.066 54.847.066 61.58c0 1.831.221 3.706.664 5.611l.871 3.69 1.447-3.498c1.742-4.208 4.754-7.84 8.534-10.394a45.966 45.966 0 0 0 2.022 3.986l.355.62H35.04l.355-.62a47.656 47.656 0 0 0 2.008-3.971c3.779 2.554 6.79 6.186 8.533 10.394l1.462 3.47.87-3.692c.444-1.89.665-3.78.665-5.61.015-6.718-2.805-13.17-7.721-17.776zM23.2 4.782l1.328-1.328 1.33 1.328a45.614 45.614 0 0 1 6.333 7.943H16.867a44.936 44.936 0 0 1 6.334-7.943zM2.576 62.967a22.13 22.13 0 0 1-.045-1.387A21.963 21.963 0 0 1 8.32 46.757c.044.207.103.428.148.635.073.354.147.708.236 1.048.059.28.133.546.206.827.104.398.207.782.325 1.18l.222.754c.118.398.25.797.384 1.196.088.25.162.502.25.753.133.383.266.753.414 1.136.03.104.074.237.133.384a25.91 25.91 0 0 0-8.061 8.297zM38.2 46.876a48.75 48.75 0 0 1-.59 2.392c-.045.162-.09.325-.134.502a56.334 56.334 0 0 1-.694 2.244l-.044.147a44.39 44.39 0 0 1-.886 2.333 53.164 53.164 0 0 1-2.214 4.636H15.405a45.628 45.628 0 0 1-2.2-4.636 62.2 62.2 0 0 1-.885-2.333.519.519 0 0 0-.06-.162 55.804 55.804 0 0 1-.693-2.23c-.044-.176-.103-.339-.148-.516-.206-.783-.413-1.565-.59-2.362-.03-.133-.06-.266-.074-.414a46.082 46.082 0 0 1 4.665-31.3h18.19a46.09 46.09 0 0 1 5.019 29.337 49.07 49.07 0 0 1-.37 2.037c-.029.104-.044.222-.058.325zm8.253 16.078a26.06 26.06 0 0 0-8.061-8.297c.059-.133.103-.281.147-.414.133-.369.28-.738.399-1.107.089-.266.192-.532.28-.812l.355-1.107c.088-.281.177-.562.25-.842.104-.354.193-.709.281-1.063.074-.31.163-.62.237-.93.073-.325.147-.635.221-.96.044-.236.103-.457.148-.679 3.69 4.045 5.787 9.33 5.787 14.823 0 .458-.015.93-.044 1.388z" fill="#E30613"/><path d="M24.515 20.05c-4.046 0-7.323 3.291-7.323 7.322 0 4.03 3.277 7.323 7.323 7.323 4.045 0 7.323-3.292 7.323-7.323 0-4.03-3.278-7.323-7.323-7.323zm0 12.209a4.893 4.893 0 0 1-4.887-4.887 4.883 4.883 0 0 1 4.887-4.887 4.893 4.893 0 0 1 4.886 4.887c0 2.702-2.2 4.887-4.886 4.887zm1.21 8.548H23.29v2.436h2.436v-2.436zm0 4.887H23.29v2.436h2.436v-2.436zm0 4.886H23.29v2.437h2.436V50.58zm0 13.436H23.29v7.323h2.436v-7.323zm-7.322 3.661h-2.436V75h2.436v-7.323zm14.66 0h-2.436V75h2.436v-7.323z" fill="#E30613"/></svg>