<svg width="75" height="75" viewBox="0 0 75 75" fill="none" xmlns="http://www.w3.org/2000/svg"><path d="M60.487 35.632h-2.421v2.422h2.421v-2.422zm0 4.843h-2.421v2.421h2.421v-2.421zm0 4.842h-2.421v2.422h2.421v-2.422zM59.276 4.289c-4.665 0-8.474 3.794-8.474 8.474s3.81 8.475 8.474 8.475c4.666 0 8.475-3.795 8.475-8.475a8.475 8.475 0 0 0-8.475-8.474zm0 14.542a6.061 6.061 0 0 1-6.053-6.053 6.061 6.061 0 0 1 6.053-6.053 6.061 6.061 0 0 1 6.054 6.053 6.061 6.061 0 0 1-6.053 6.053zM29.631 34.54v-11H27.21v11a5.455 5.455 0 0 0-4.208 4.842v-.723h-6.82v2.421h6.82v-.723c.251 2.79 2.569 4.99 5.418 4.99a5.47 5.47 0 0 0 5.463-5.463 5.452 5.452 0 0 0-4.252-5.344zm-1.21 8.37a3.062 3.062 0 0 1-3.057-3.055 3.062 3.062 0 0 1 3.056-3.056 3.062 3.062 0 0 1 3.056 3.056 3.062 3.062 0 0 1-3.056 3.056z" fill="#E30613"/><path d="M64.784 22.36l-.65-.045-4.857 6.467-4.858-6.467-.65.045c-.9.059-1.771.236-2.598.487-5.359-7.16-13.79-11.413-22.75-11.413C12.755 11.434 0 24.19 0 39.87c0 15.679 12.756 28.42 28.42 28.42 8.12 0 15.812-3.484 21.172-9.464v11.885h19.355V51.356H75V33.21c0-5.743-4.488-10.512-10.216-10.851zM49.62 54.958a26.453 26.453 0 0 1-7.16 6.777l-1.181-2.052-2.097 1.21 1.196 2.067a26.106 26.106 0 0 1-10.733 2.88v-5.552h-2.422v5.522a25.705 25.705 0 0 1-10.718-2.865l1.181-2.052-2.096-1.21-1.182 2.052a26 26 0 0 1-7.84-7.855l2.053-1.18-1.21-2.097-2.053 1.181a25.705 25.705 0 0 1-2.864-10.719h5.522v-2.42H2.48a25.704 25.704 0 0 1 2.864-10.72l2.053 1.182 1.21-2.097-2.052-1.18a26.117 26.117 0 0 1 7.84-7.84l1.18 2.037 2.097-1.21-1.18-2.053A25.705 25.705 0 0 1 27.21 13.9v5.522h2.42V13.9a26.041 26.041 0 0 1 10.72 2.879l-1.182 2.052 2.097 1.21 1.196-2.051a26.44 26.44 0 0 1 6.451 5.86 9.236 9.236 0 0 0-1.077.74c-.089.058-.163.132-.237.191a9.72 9.72 0 0 0-.708.62 2.502 2.502 0 0 0-.28.28 10.64 10.64 0 0 0-.754.872c-.088.118-.177.25-.266.369-.147.206-.295.428-.428.635-.088.147-.177.295-.265.457-.133.251-.251.502-.37.753-.059.118-.117.222-.162.34a9.37 9.37 0 0 0-.384 1.137c-.03.118-.059.25-.088.384a9.095 9.095 0 0 0-.177.915c-.015.133-.045.25-.06.384a12.51 12.51 0 0 0-.088 1.284v18.145h6.053v3.602zm22.973-6.023h-6.068V68.29h-6.054V51.326h-2.42V68.29h-6.054V48.935h-6.053V33.21c0-.384.03-.753.088-1.137.015-.073.015-.162.03-.236.059-.354.133-.694.236-1.033.03-.074.044-.148.074-.222a6.1 6.1 0 0 1 .34-.856c.03-.06.059-.133.088-.192.148-.31.325-.59.502-.871.06-.089.118-.177.177-.251.192-.28.399-.546.62-.797l.133-.133c.236-.251.488-.487.753-.724.03-.014.045-.044.074-.059.31-.25.635-.487.99-.694.014 0 .029-.014.029-.014a8.843 8.843 0 0 1 1.122-.561l.162-.06a8.34 8.34 0 0 1 1.92-.501l5.994 7.972 5.994-7.972c4.148.56 7.323 4.133 7.323 8.385v15.68z" fill="#E30613"/></svg>