<svg width="48" height="64" viewBox="0 0 48 64" fill="none" xmlns="http://www.w3.org/2000/svg">
<path d="M18.4125 0L0.258179 18.1543V64H47.7416V0H18.4125ZM17.8078 3.52756V17.5496H3.78574L17.8078 3.52756ZM2.32432 61.9339V19.6157H19.8739V2.06614H45.6755V61.9339H2.32432Z" fill="#E30613"/>
<path d="M20.907 56.7685H18.8408V58.8346H20.907V56.7685Z" fill="#E30613"/>
<path d="M25.0393 56.7685H22.9731V58.8346H25.0393V56.7685Z" fill="#E30613"/>
<path d="M29.1716 56.7685H27.1055V58.8346H29.1716V56.7685Z" fill="#E30613"/>
<path d="M38.4566 51.6158H9.55577V29.9339H7.48962V53.6819H40.5227V29.9339H38.4566V51.6158Z" fill="#E30613"/>
<path d="M34.5637 36.1197H28.1385V23.7354H19.8739V23.748V36.1323H13.4487L24.0062 48L34.5637 36.1197ZM21.9401 38.1984V25.8142H26.0724V38.1984H29.9653L24.0062 44.9008L18.0472 38.1984H21.9401Z" fill="#E30613"/>
</svg>
