<svg width="48" height="64" viewBox="0 0 48 64" fill="none" xmlns="http://www.w3.org/2000/svg"><path d="M18.413 0L.258 18.154V64h47.484V0h-29.33zm-.605 3.528V17.55H3.786L17.808 3.528zM2.324 61.934V19.616h17.55V2.066h25.802v59.868H2.324z" fill="#E30613"/><path d="M20.907 56.769h-2.066v2.066h2.066v-2.066zm4.133 0h-2.067v2.066h2.066v-2.066zm4.132 0h-2.067v2.066h2.067v-2.066zm9.285-5.153H9.556V29.934H7.49v23.748h33.033V29.934h-2.066v21.682z" fill="#E30613"/><path d="M34.564 36.12h-6.425V23.735h-8.265v12.397h-6.425L24.006 48l10.558-11.88zM21.94 38.198V25.814h4.132v12.384h3.893l-5.959 6.703-5.959-6.703h3.893z" fill="#E30613"/></svg>