<svg width="59" height="59" viewBox="0 0 59 59" fill="none" xmlns="http://www.w3.org/2000/svg"><path d="M56.456 52.508l-9.419-9.431-2.02 2.02-1.383-1.381a12.246 12.246 0 0 0 2.985-8.037c0-3.31-1.289-6.411-3.623-8.746-.5-.5-1.046-.94-1.603-1.347V0H12.45L1.428 11.022V59h39.965V45.76c.302-.22.604-.453.894-.697l1.382 1.382-2.02 2.02 9.418 9.42A3.799 3.799 0 0 0 53.762 59a3.8 3.8 0 0 0 2.694-1.115c1.487-1.487 1.487-3.902 0-5.377zM11.893 3.252v7.224H4.68l7.213-7.224zM39.5 57.095H3.333V12.37h10.465V1.905h25.69v22.578a12.383 12.383 0 0 0-5.238-1.173 12.28 12.28 0 0 0-8.745 3.623 12.244 12.244 0 0 0-1.963 2.567H8.095v1.905h14.553a12.272 12.272 0 0 0-.302 7.607H8.095v1.905h14.97a12.307 12.307 0 0 0 11.196 7.12c1.79 0 3.578-.407 5.239-1.174v10.232zm2.16-14.018c-4.077 4.077-10.72 4.077-14.808 0a10.413 10.413 0 0 1-3.066-7.398c0-2.8 1.091-5.424 3.066-7.399a10.412 10.412 0 0 1 7.398-3.066c2.8 0 5.424 1.092 7.398 3.067a10.404 10.404 0 0 1 3.078 7.398c0 2.799-1.092 5.424-3.066 7.398zm13.45 13.46a1.907 1.907 0 0 1-2.695 0l-8.072-8.071 2.694-2.694 8.072 8.071a1.907 1.907 0 0 1 0 2.695z" fill="#E30613"/><path d="M28.153 35.679c0-1.626.639-3.16 1.788-4.31a.953.953 0 0 0-1.347-1.346 7.952 7.952 0 0 0-2.346 5.656 7.95 7.95 0 0 0 2.346 5.656.95.95 0 0 0 1.347 0 .953.953 0 0 0 0-1.347 6.063 6.063 0 0 1-1.788-4.31zm6.585-15.691H8.095v1.905h26.643v-1.905zm0 29.5H8.095v1.905h26.643v-1.905zM27.12 7.607h-1.906v1.905h1.905V7.607zm3.808 0h-1.904v1.905h1.904V7.607zm3.81 0h-1.905v1.905h1.905V7.607z" fill="#E30613"/></svg>