<svg width="65" height="51" viewBox="0 0 65 51" fill="none" xmlns="http://www.w3.org/2000/svg"><path d="M44.029 12.436V7.715C44.029 3.67 40.74.37 36.684.37H7.344C3.288.383 0 3.671 0 7.727V28.7c0 4.043 3.288 7.344 7.344 7.344v9.52l11.9-9.52h4.977c2.88 7.127 10.89 12.053 19.808 12.053 4.056 0 7.971-.985 11.374-2.866l5.4 5.4v-9.686C63.554 37.834 65 34.15 65 30.273c0-9.84-9.404-17.837-20.971-17.837zM23.454 33.945h-4.952v-.013L9.43 41.187v-7.255H7.344a5.253 5.253 0 0 1-5.246-5.246V7.727a5.253 5.253 0 0 1 5.246-5.246h29.353a5.253 5.253 0 0 1 5.246 5.246v20.971a5.253 5.253 0 0 1-5.246 5.247H23.454zm35.532 5.873l-.281.307v5.425l-2.969-2.968-.703.422c-3.238 1.945-7.05 2.981-11.017 2.981-7.754 0-14.728-4.03-17.543-9.954h10.211a7.322 7.322 0 0 0 6.615-4.197h14.344v-2.099H43.952c.051-.345.09-.69.09-1.049V23.44h13.626v-2.1h-13.64v-6.82c10.403 0 18.874 7.05 18.874 15.726 0 3.493-1.357 6.794-3.916 9.57z" fill="#E30613"/></svg>