<svg width="66" height="66" viewBox="0 0 66 66" fill="none" xmlns="http://www.w3.org/2000/svg"><path d="M29.797 5.327h-8.51v2.13h8.51v-2.13zM18.079 57.49h-8.51v2.13h8.51v-2.13zm23.424 0h-8.51v2.13h8.51v-2.13zM19.157 5.327h-2.13v2.13h2.13v-2.13zm6.379 48.967a4.264 4.264 0 0 0-4.261 4.262 4.264 4.264 0 0 0 4.261 4.26 4.264 4.264 0 0 0 4.261-4.26 4.264 4.264 0 0 0-4.26-4.262zm0 6.38a2.14 2.14 0 0 1-2.13-2.132c0-1.169.948-2.13 2.13-2.13 1.17 0 2.13.961 2.13 2.13a2.123 2.123 0 0 1-2.13 2.131z" fill="#E30613"/><path d="M57.484 17.033h-9.576V3.196A3.194 3.194 0 0 0 44.712 0H6.386A3.194 3.194 0 0 0 3.19 3.196v59.608A3.194 3.194 0 0 0 6.386 66h38.326a3.194 3.194 0 0 0 3.196-3.196V42.575h9.576a5.334 5.334 0 0 0 5.326-5.327V22.36c-.013-2.936-2.403-5.326-5.326-5.326zm-11.72 45.77A1.07 1.07 0 0 1 44.7 63.87H6.373a1.07 1.07 0 0 1-1.066-1.065V3.196a1.07 1.07 0 0 1 1.066-1.065h38.326c.585 0 1.066.48 1.066 1.065v13.837h-4.262V10.64H9.57v42.575h31.934v-10.64h4.262v20.228zM34.06 42.576v5.405l5.327-4.261v7.366H11.712V12.758h27.674v4.262h-5.327a5.334 5.334 0 0 0-5.327 5.326v14.902c0 2.95 2.39 5.327 5.327 5.327zm26.608-5.314a3.194 3.194 0 0 1-3.196 3.197H40.06l-3.884 3.105v-3.105h-2.131a3.194 3.194 0 0 1-3.196-3.197V22.36a3.194 3.194 0 0 1 3.196-3.196H57.47a3.194 3.194 0 0 1 3.196 3.196v14.902z" fill="#E30613"/><path d="M57.484 23.425H34.059v2.13h23.425v-2.13zm0 5.314H34.059v2.13h23.425v-2.13zM46.83 34.065H44.7v2.131h2.13v-2.13zm4.262 0H48.96v2.131h2.13v-2.13zm-8.51 0H40.45v2.131h2.13v-2.13z" fill="#E30613"/></svg>