<svg width="56" height="70" viewBox="0 0 56 70" fill="none" xmlns="http://www.w3.org/2000/svg">
<path d="M27.5169 0.270599C15.1344 8.86964 5.15943 10.2456 0 11.2774V15.233C0 52.8967 27.5169 69.9227 27.5169 69.9227C27.5169 69.9227 54.5179 53.4126 55.0339 15.233V11.2774C37.8356 8.18168 29.9245 1.81836 27.5169 0.270599ZM3.43962 14.2009C3.43962 14.2009 13.4146 12.309 21.4975 8.18168L4.29942 25.3798C3.43962 21.7681 3.43962 14.2009 3.43962 14.2009ZM4.98738 29.5071L28.8927 5.42981C31.4723 6.97757 34.0521 8.52555 36.8037 9.72923L7.73903 38.7941C6.53514 35.6986 5.67535 32.6029 4.98738 29.5071ZM9.11496 42.2338L40.4154 11.1054C44.0271 12.6531 49.8742 13.857 49.8742 13.857L13.4144 50.1448C11.8666 47.5652 10.4907 44.9854 9.11496 42.2338ZM27.5169 65.6231C26.141 64.5913 24.7653 63.3874 23.3894 62.0114L47.6385 37.7623C43.5111 48.9409 36.6319 58.572 27.5169 65.6231ZM49.7024 30.711L20.9816 59.6039C18.9179 57.5402 17.1981 55.3045 15.4783 52.8967L51.5943 16.7807C51.4222 21.5961 50.9063 26.2396 49.7024 30.711Z" fill="#E30613"/>
</svg>
