<svg width="78" height="78" viewBox="0 0 78 78" fill="none" xmlns="http://www.w3.org/2000/svg"><path d="M67.7 24.681c1.005-12.184-8.918-21.604-19.97-21.604-6.658 0-12.938 3.392-16.706 8.918-10.802-4.898-20.096 4.02-19.72 12.435C5.024 25.058 0 30.459 0 36.99c0 6.908 5.652 12.56 12.56 12.56h6.28v-2.51h-6.28c-4.898 0-10.048-3.768-10.048-10.049 0-7.536 7.034-10.676 11.556-10.048-1.884-11.681 10.3-17.333 17.961-11.556 0 0 4.773-9.796 15.826-9.796 9.672 0 19.594 8.792 17.208 21.227 0 0 10.425.628 10.425 10.173 0 5.276-4.522 10.049-10.048 10.049h-6.28v2.512h6.28c6.908 0 12.56-5.652 12.56-12.56-.126-6.155-4.396-11.18-10.3-12.31z" fill="#E30613"/><path d="M38.937 24.053c-9.043 6.28-16.328 7.285-20.096 8.039v2.889c0 27.507 20.096 39.942 20.096 39.942s19.72-12.058 20.097-39.942v-2.89c-12.56-2.26-18.338-6.907-20.097-8.038zM21.353 34.227s7.285-1.382 13.188-4.396l-12.56 12.56c-.628-2.637-.628-8.164-.628-8.164zm1.13 11.179L39.942 27.82c1.884 1.13 3.768 2.261 5.778 3.14L24.493 52.188c-.88-2.26-1.508-4.521-2.01-6.782zm3.015 9.294l22.86-22.734c2.637 1.13 6.908 2.01 6.908 2.01L28.638 60.478c-1.13-1.884-2.136-3.768-3.14-5.778zm13.44 17.082a28.276 28.276 0 0 1-3.015-2.637l17.71-17.71c-3.015 8.164-8.039 15.198-14.696 20.347zM55.14 46.285L34.164 67.387c-1.507-1.508-2.763-3.14-4.02-4.899l26.378-26.377c-.126 3.517-.503 6.908-1.382 10.174z" fill="#E30613"/></svg>