<svg width="69" height="69" viewBox="0 0 69 69" fill="none" xmlns="http://www.w3.org/2000/svg"><path d="M64.532 48.963v-36.72a3.338 3.338 0 0 0-3.34-3.341H7.794a3.338 3.338 0 0 0-3.34 3.34v36.72H0v4.32c0 1.819.706 3.53 1.996 4.82a6.77 6.77 0 0 0 4.821 1.996h55.366c1.82 0 3.53-.706 4.82-1.996A6.77 6.77 0 0 0 69 53.282v-4.32h-4.468zm-57.85-36.72c0-.612.502-1.114 1.113-1.114h53.41c.611 0 1.114.502 1.114 1.113v36.72H41.175v2.228h-13.35v-2.227H6.681v-36.72zm60.09 41.038h-.013a4.562 4.562 0 0 1-1.344 3.246 4.561 4.561 0 0 1-3.246 1.344H6.817a4.561 4.561 0 0 1-3.245-1.344 4.562 4.562 0 0 1-1.345-3.246V51.19h23.371v2.227h17.804V51.19h23.37v2.091z" fill="#E30613"/><path d="M8.895 13.356v33.38h51.183V24.437h.014V13.356H8.895zm2.227 2.24h46.729v6.628H11.122v-6.627zm0 28.912v-20.07h46.729v20.07H11.122zm51.197 8.909h-2.227v2.227h2.227v-2.227zm-4.455 0h-2.227v2.227h2.227v-2.227zm-4.454 0h-2.227v2.227h2.227v-2.227zm-31.152 0H6.68v2.227h15.577v-2.227z" fill="#E30613"/><path d="M16.69 17.81h-2.227v2.227h2.227V17.81zm4.454 0h-2.227v2.227h2.227V17.81zm4.454 0h-2.227v2.227h2.227V17.81zm28.926 0h-20.03v2.227h20.03V17.81zM22.72 34.5l4.67-4.672-1.574-1.575-6.247 6.247 6.301 6.301 1.575-1.575L22.72 34.5zm21.456-6.247l-1.562 1.575 4.726 4.726-4.685 4.672L44.23 40.8l6.247-6.247-6.301-6.3zm-5.029-1.063l-10.02 14.47 1.831 1.269 10.02-14.472-1.83-1.268z" fill="#E30613"/></svg>