<svg width="59" height="67" viewBox="0 0 59 67" fill="none" xmlns="http://www.w3.org/2000/svg"><path d="M52.967 22.804v-4.721a3.2 3.2 0 0 0-1.319-2.612 3.23 3.23 0 0 0-2.888-.488l-5.447 2.48V.027H0v66.947h43.313V40.9l5.328 2.426.132.053c.316.106.646.145.976.145.672 0 1.345-.21 1.912-.633a3.2 3.2 0 0 0 1.32-2.611v-4.722a6.479 6.479 0 0 0 5.393-6.383c0-3.205-2.347-5.856-5.407-6.37zM2.163 2.19H41.15v6.476H2.163V2.19zM41.15 64.811H2.163v-6.476H41.15v6.476zm0-8.639H2.163V10.83H41.15v7.623l-4.617 2.097h-8.4a3.25 3.25 0 0 0-3.245 3.245v10.801a3.25 3.25 0 0 0 3.244 3.245h.185l1.714 9.153a3.197 3.197 0 0 0 3.179 2.73 3.21 3.21 0 0 0 2.44-1.121 3.195 3.195 0 0 0 .725-2.611l-1.543-8.138h1.701l4.617 2.097v16.222zM28.132 35.65v.014a1.086 1.086 0 0 1-1.081-1.082V23.78c0-.593.488-1.081 1.081-1.081h7.557V35.65h-7.556zm5.87 11.514c-.199.238-.489.37-.805.37-.528 0-.963-.383-1.042-.923l-1.649-8.784h2.123l1.61 8.493c.052.304-.04.607-.238.844zm16.802-6.884c0 .343-.158.66-.435.87a1.024 1.024 0 0 1-.91.172l-11.607-5.276v-13.73l11.607-5.275c.316-.08.646-.013.91.171.277.211.435.528.435.87V40.28zm2.163-6.938v-8.335c1.86.488 3.244 2.163 3.244 4.168a4.314 4.314 0 0 1-3.244 4.167z" fill="#E30613"/></svg>