<svg width="93" height="49" viewBox="0 0 93 49" fill="none" xmlns="http://www.w3.org/2000/svg">
<path d="M18.214 37.6518L21.2099 23.9761C21.3281 23.4366 21.8612 23.0951 22.4007 23.2133L46.8216 28.563C47.3611 28.6812 47.7026 29.2144 47.5844 29.7539L44.5886 43.4296C44.4704 43.9691 43.9372 44.3106 43.3977 44.1924L18.9768 38.8426C18.4373 38.7244 18.0958 38.1913 18.214 37.6518Z" stroke="#E30613" stroke-width="2"/>
<path d="M47.7984 28.777L33.3062 34.4371C32.9302 34.584 32.5027 34.4904 32.2225 34.1997L21.4239 22.9993" stroke="#E30613" stroke-width="2"/>
<rect x="7" y="22.166" width="30" height="13" transform="rotate(-17.7919 7 22.166)" fill="white"/>
<rect x="45.4962" y="35.3618" width="17.5697" height="14.056" rx="2" transform="rotate(-122.302 45.4962 35.3618)" fill="white"/>
<path d="M6.31804 31.1375L2.28787 17.7301C2.12888 17.2012 2.42876 16.6436 2.95767 16.4846L26.8994 9.28786C27.4283 9.12888 27.986 9.42876 28.145 9.95767L32.1751 23.365C32.3341 23.8939 32.0342 24.4516 31.5053 24.6106L7.56358 31.8073C7.03467 31.9663 6.47702 31.6664 6.31804 31.1375Z" stroke="#E30613" stroke-width="2"/>
<path d="M46.0393 29.1344L38.536 17.3149C38.24 16.8487 38.378 16.2307 38.8442 15.9347L59.9504 2.53588C60.4167 2.23988 61.0346 2.3779 61.3306 2.84417L68.834 14.6636C69.13 15.1299 68.992 15.7478 68.5257 16.0438L47.4195 29.4427C46.9533 29.7387 46.3353 29.6007 46.0393 29.1344Z" stroke="#E30613" stroke-width="2"/>
<path d="M61.308 38.2707L65.6204 24.9514C65.7905 24.4259 66.3543 24.1379 66.8798 24.308L90.6642 32.0086C91.1897 32.1787 91.4777 32.7426 91.3076 33.268L86.9952 46.5873C86.8251 47.1127 86.2613 47.4008 85.7358 47.2307L61.9514 39.5301C61.4259 39.36 61.1379 38.7961 61.308 38.2707Z" stroke="#E30613" stroke-width="2"/>
<path d="M27.8571 9L17.9441 20.9914C17.6869 21.3026 17.2678 21.4285 16.8817 21.3108L2 16.7725" stroke="#E30613" stroke-width="2"/>
<path d="M60.7947 1.99992L54.491 16.224C54.3275 16.5931 53.958 16.8277 53.5544 16.8186L38 16.4707" stroke="#E30613" stroke-width="2"/>
<path d="M91.6156 32.3166L76.6414 36.5398C76.2529 36.6493 75.8365 36.5146 75.586 36.198L65.9284 24" stroke="#E30613" stroke-width="2"/>
</svg>
