<svg width="49" height="39" viewBox="0 0 49 39" fill="none" xmlns="http://www.w3.org/2000/svg">
<path d="M18.214 30.6525L21.2099 16.9768C21.3281 16.4373 21.8612 16.0958 22.4007 16.214L46.8216 21.5638C47.3611 21.682 47.7026 22.2151 47.5844 22.7546L44.5886 36.4303C44.4704 36.9698 43.9372 37.3113 43.3977 37.1931L18.9768 31.8434C18.4373 31.7252 18.0958 31.192 18.214 30.6525Z" stroke="#E30613" stroke-width="2"/>
<path d="M47.7984 21.7778L33.3062 27.4379C32.9302 27.5847 32.5027 27.4911 32.2225 27.2005L21.4239 16" stroke="#E30613" stroke-width="2"/>
<rect x="7" y="15.1667" width="30" height="13" transform="rotate(-17.7919 7 15.1667)" fill="white"/>
<path d="M6.31804 24.1375L2.28787 10.7301C2.12888 10.2012 2.42876 9.64358 2.95767 9.48459L26.8994 2.28786C27.4283 2.12888 27.986 2.42876 28.145 2.95767L32.1751 16.365C32.3341 16.8939 32.0342 17.4516 31.5053 17.6106L7.56358 24.8073C7.03467 24.9663 6.47702 24.6664 6.31804 24.1375Z" stroke="#E30613" stroke-width="2"/>
<path d="M27.8571 2L17.9441 13.9914C17.6869 14.3026 17.2678 14.4285 16.8817 14.3108L2 9.77246" stroke="#E30613" stroke-width="2"/>
</svg>
