<svg width="70" height="70" viewBox="0 0 70 70" fill="none" xmlns="http://www.w3.org/2000/svg">
<path fill-rule="evenodd" clip-rule="evenodd" d="M33 58V65.9365C25.9448 65.4873 19.5308 62.6778 14.5396 58.2892L17.3228 55.5061L14.4941 52.6777L11.7109 55.4608C7.32178 50.4694 4.5127 44.0555 4.06348 37H12V33H4.06348C4.5127 25.9445 7.32178 19.5306 11.7109 14.5392L14.4941 17.3224L17.3228 14.4939L14.5396 11.7107C19.5308 7.32211 25.9448 4.51274 33 4.06348V12H37V4.06348C44.0552 4.51274 50.4688 7.32222 55.4604 11.7109L52.6777 14.4939L55.5059 17.3223L58.2891 14.5393C62.6777 19.5307 65.4873 25.9446 65.9365 33H58V37H65.9365C65.4873 44.0553 62.6777 50.469 58.2891 55.4604L55.5063 52.6774L52.6777 55.5058L55.4609 58.289C50.4692 62.6778 44.0557 65.4873 37 65.9365V58H33ZM0.0561523 33C0.515625 24.8408 3.77051 17.4287 8.87744 11.7055L8.8374 11.6655L10.1426 10.3605L10.3623 10.1408L11.666 8.83707L11.7061 8.87698C17.4292 3.77003 24.8408 0.515823 33 0.0561829V0H35H37V0.0561829C45.1592 0.515823 52.5713 3.77014 58.2944 8.87721L58.3345 8.83705L61.1631 11.6655L61.123 11.7057C66.23 17.4289 69.4844 24.841 69.9438 33H70V35V37H69.9438C69.4844 45.159 66.23 52.571 61.123 58.2942L61.1631 58.3343L59.8267 59.6706L59.6689 59.8283L58.3345 61.1627L58.2944 61.1227C52.5713 66.2298 45.1592 69.4842 37 69.9438V70H35H33V69.9438C24.8408 69.4842 17.4287 66.2299 11.7056 61.1228L11.6655 61.1629L10.3237 59.821L10.1763 59.6738L8.8374 58.3345L8.87744 58.2945C3.77051 52.5713 0.515625 45.1592 0.0561523 37H0V35V33H0.0561523Z" fill="#E30613"/>
<path d="M36.4498 29.999V19H34.0285V29.999C31.7549 30.5157 30.0276 32.4646 29.8209 34.8415V34.1181H23V36.5394H29.8209V35.8159C30.0719 38.6063 32.3898 40.8061 35.2392 40.8061C38.251 40.8061 40.7018 38.3553 40.7018 35.3435C40.7165 32.7303 38.8858 30.5453 36.4498 29.999ZM35.2392 38.3701C33.5561 38.3701 32.1831 36.997 32.1831 35.314C32.1831 33.6309 33.5561 32.2579 35.2392 32.2579C36.9222 32.2579 38.2953 33.6309 38.2953 35.314C38.2953 36.997 36.9222 38.3701 35.2392 38.3701Z" fill="#E30613"/>
</svg>
